<?xml version="1.0" encoding="iso-8859-1"?>
<!-- Uploaded to: SVG Repo, www.svgrepo.com, Generator: SVG Repo Mixer Tools -->
<svg fill="#000000" height="800px" width="800px" version="1.1" id="Layer_1" xmlns="http://www.w3.org/2000/svg" xmlns:xlink="http://www.w3.org/1999/xlink" 
	 viewBox="0 0 512 512" xml:space="preserve">
<g>
	<g>
		<path d="M497.813,260.672l-32.706-27.79c-7.276-6.183-16.513-9.577-26.061-9.577h-45.992v149.082h22.188
			c6.186-14.482,20.568-24.657,37.285-24.657s31.099,10.176,37.285,24.657c12.255,0,22.188-9.934,22.188-22.188v-58.857
			C512,279.533,506.813,268.319,497.813,260.672z M444.298,289.033h-12.515c-5.989,0-10.843-4.854-10.843-10.843
			s4.854-10.843,10.843-10.843h12.515c5.989,0,10.843,4.854,10.843,10.843S450.287,289.033,444.298,289.033z"/>
	</g>
</g>
<g>
	<g>
		<path d="M349.524,180.925h-103.86c-2.239,20.182-10.643,38.532-23.292,53.109h148.996v-21.572v-9.693
			C371.368,190.706,361.589,180.925,349.524,180.925z"/>
	</g>
</g>
<g>
	<g>
		<path d="M157.136,358.573c-16.365,0-29.679,13.314-29.679,29.68s13.314,29.68,29.679,29.68c16.366,0,29.681-13.315,29.681-29.68
			S173.502,358.573,157.136,358.573z"/>
	</g>
</g>
<g>
	<g>
		<path d="M452.527,358.573c-16.365,0-29.68,13.314-29.68,29.679s13.314,29.681,29.68,29.681s29.681-13.314,29.681-29.681
			C482.208,371.886,468.893,358.573,452.527,358.573z"/>
	</g>
</g>
<g>
	<g>
		<path d="M195.555,255.72c-13.951,7.684-29.967,12.064-46.988,12.064c-16.138,0-31.368-3.941-44.795-10.899H46.73
			c-5.028,0-9.916,2.157-12.975,6.148c-1.904,2.484-3.1,5.524-3.257,8.862c-0.44,9.34,7.002,17.051,16.246,17.051h36.85v66.619
			c0,12.064,9.779,21.844,21.844,21.844h12.66c4.755-17.094,20.449-29.679,39.037-29.679c18.589,0,34.283,12.585,39.038,29.679
			h175.194V255.72H195.555z"/>
	</g>
</g>
<g>
	<g>
		<path d="M50.991,175.103H16.265C7.282,175.103,0,182.385,0,191.367c0,8.982,7.282,16.264,16.265,16.264h42.107
			C54.15,197.529,51.575,186.574,50.991,175.103z"/>
	</g>
</g>
<g>
	<g>
		<path d="M148.566,94.067c-41.916,0-76.017,34.101-76.017,76.016c0,41.915,34.101,76.016,76.017,76.016
			s76.016-34.101,76.016-76.016C224.582,128.169,190.481,94.067,148.566,94.067z M173.037,189.74h-33.285
			c-5.989,0-10.843-4.854-10.843-10.843v-41.041c0-5.989,4.854-10.843,10.843-10.843s10.843,4.854,10.843,10.843v30.198h22.442
			c5.989,0,10.843,4.854,10.843,10.843S179.026,189.74,173.037,189.74z"/>
	</g>
</g>
</svg>