<?xml version="1.0" standalone="no"?>
<svg xmlns:xlink="http://www.w3.org/1999/xlink" width="128" height="128" viewBox="0 0 24 24" id="magicoon-Regular" xmlns="http://www.w3.org/2000/svg" style="color: rgb(217, 75, 46);" data-vcid="vc9hnbvhj"><style data-vc="1">svg[data-vcid="vc9hnbvhj"] {color:#d94b2e!important}
svg[data-vcid="vc9hnbvhj"] [fill]:not([fill="none"]):not([fill="transparent"]):not([fill^="url"]):not([data-background]):not([data-mvar-background]),svg[data-vcid="vc9hnbvhj"] [style*="fill"]:not([style*="fill:none"]):not([style*="fill: none"]):not([style*="fill:transparent"]):not([style*="fill: transparent"]):not([style*="fill:url"]):not([style*="fill: url"]):not([data-background]):not([data-mvar-background]){fill:#d94b2e!important}
svg[data-vcid="vc9hnbvhj"] [stroke]:not([stroke="none"]):not([stroke^="url"]):not([data-background]):not([data-mvar-background]),svg[data-vcid="vc9hnbvhj"] [style*="stroke"]:not([style*="stroke:none"]):not([style*="stroke: none"]):not([style*="stroke:url"]):not([style*="stroke: url"]):not([data-background]):not([data-mvar-background]){stroke:#d94b2e!important}</style>

<defs>


</defs>


<g id="home-Regular">

<path id="home-Regular-2" data-name="home-Regular" style="fill:#41416e" d="M19.978,7.313l-5-4.019a4.783,4.783,0,0,0-5.956,0l-5,4.019a4.722,4.722,0,0,0-1.772,3.7V17A4.753,4.753,0,0,0,7,21.746H9.75V17a2.25,2.25,0,0,1,4.5,0v4.745H17A4.753,4.753,0,0,0,21.75,17V11.009A4.722,4.722,0,0,0,19.978,7.313ZM20.25,17A3.251,3.251,0,0,1,17,20.246H15.75V17a3.75,3.75,0,0,0-7.5,0v3.245H7A3.251,3.251,0,0,1,3.75,17V11.009A3.228,3.228,0,0,1,4.961,8.482l5-4.019a3.277,3.277,0,0,1,4.078,0l5,4.019a3.228,3.228,0,0,1,1.211,2.527Z"/>

</g>

</svg>